<?xml version="1.0" standalone="no"?>
<!DOCTYPE svg PUBLIC "-//W3C//DTD SVG 20010904//EN"
 "http://www.w3.org/TR/2001/REC-SVG-20010904/DTD/svg10.dtd">
<svg version="1.0" xmlns="http://www.w3.org/2000/svg"
 width="542.000000pt" height="555.000000pt" viewBox="0 0 542.000000 555.000000"
 preserveAspectRatio="xMidYMid meet">

<g transform="translate(0.000000,555.000000) scale(0.100000,-0.100000)"
fill="#000000" stroke="none">
<path d="M1352 5543 c747 -2 1969 -2 2715 0 747 1 136 2 -1357 2 -1493 0
-2104 -1 -1358 -2z"/>
<path d="M3321 4395 c-58 -50 -64 -124 -13 -184 54 -65 164 -47 205 33 26 49
16 99 -28 143 -29 29 -40 33 -83 33 -39 0 -57 -6 -81 -25z m113 -58 c39 -28
13 -97 -36 -97 -24 0 -58 35 -58 59 0 22 35 51 60 51 9 0 24 -6 34 -13z"/>
<path d="M2539 4194 l-187 -186 -38 25 c-88 55 -123 68 -147 56 -12 -7 -74
-63 -137 -125 l-116 -113 -61 53 c-34 29 -76 70 -93 90 -18 20 -39 36 -47 36
-14 0 -736 -700 -729 -707 1 -2 36 1 76 7 l73 10 176 168 c96 92 222 215 280
274 57 59 108 105 114 101 18 -11 -2 -106 -38 -181 -19 -41 -34 -77 -31 -79 2
-2 27 6 56 18 44 19 54 20 75 9 45 -24 96 10 266 178 l156 153 32 -36 c17 -20
31 -41 31 -47 0 -6 -12 -46 -26 -90 -15 -43 -23 -82 -20 -86 4 -4 123 112 265
257 160 165 262 262 269 257 16 -10 15 -82 -3 -174 -10 -51 -33 -112 -68 -181
-28 -57 -53 -106 -55 -110 -1 -4 68 28 154 71 149 74 204 92 204 66 0 -24 -57
-106 -145 -208 l-92 -106 136 59 c140 60 313 148 343 175 10 8 20 30 24 48 3
19 9 34 13 34 12 0 181 -177 181 -189 0 -7 -9 -30 -20 -51 -11 -22 -17 -40
-13 -40 10 1 95 71 224 184 79 70 103 86 110 75 22 -36 -3 -143 -56 -234 -15
-25 -23 -45 -19 -45 5 0 39 12 77 26 70 27 104 26 93 -2 -7 -18 -7 -18 91 16
l62 22 157 -155 158 -155 79 -12 c43 -6 82 -9 85 -6 3 4 -59 68 -139 144 -391
374 -582 552 -591 552 -5 0 -42 -30 -81 -67 -40 -37 -89 -83 -109 -102 l-37
-34 -130 127 -129 126 -68 -24 -69 -25 -60 57 c-194 187 -298 282 -307 282 -7
0 -96 -84 -199 -186z"/>
<path d="M2805 3417 c-55 -18 -85 -35 -117 -65 l-28 -26 0 37 c0 19 -5 39 -11
42 -13 8 -243 7 -264 -2 -8 -3 -15 -11 -15 -19 0 -20 -13 -17 -27 5 -11 17
-21 19 -95 14 -46 -3 -88 -9 -94 -14 -6 -5 -15 -4 -20 1 -6 6 -52 4 -124 -6
-63 -8 -126 -13 -140 -12 -83 8 -168 0 -217 -22 -29 -12 -58 -29 -65 -37 -10
-13 -14 -12 -28 7 -16 22 -16 22 -124 6 -58 -9 -111 -16 -116 -16 -6 0 -10
-12 -10 -27 l0 -26 -23 21 c-22 21 -25 21 -107 7 -47 -8 -101 -15 -120 -17
-28 -2 -36 -8 -38 -25 -3 -20 -6 -22 -25 -11 -12 6 -50 11 -84 10 -113 -1
-243 -85 -280 -180 -13 -34 -18 -74 -18 -142 1 -116 13 -143 96 -207 33 -26
58 -51 56 -56 -1 -5 -36 -22 -77 -36 l-75 -27 -3 -80 c-2 -70 1 -85 25 -134
21 -42 39 -61 73 -80 85 -47 245 -26 317 42 19 17 25 19 38 8 13 -10 29 -10
93 3 42 9 94 18 115 22 31 5 37 10 37 30 0 29 6 31 27 9 17 -17 43 -16 181 7
48 9 62 15 62 28 0 28 7 29 68 8 101 -34 216 -8 301 68 35 32 41 34 41 18 0
-11 9 -28 19 -37 16 -15 34 -17 123 -13 56 3 110 5 118 6 8 0 60 1 115 2 112
1 132 8 141 47 3 15 12 51 20 80 13 47 17 52 44 52 23 0 37 -11 72 -57 76
-101 139 -128 274 -121 55 3 91 10 108 22 26 17 27 16 46 -6 17 -21 28 -23
128 -26 101 -3 112 -2 131 17 17 17 21 34 21 79 0 32 2 61 5 63 2 3 26 3 51
-1 44 -5 50 -9 89 -65 61 -87 136 -126 255 -133 77 -4 93 -2 123 16 33 19 35
19 40 2 7 -28 46 -48 117 -59 89 -15 150 -14 150 2 0 6 10 0 23 -14 24 -29
112 -52 202 -53 34 -1 55 -6 65 -18 17 -20 219 -64 244 -55 14 6 16 48 16 342
l0 335 28 -7 c15 -4 45 -8 67 -8 l40 0 -3 124 c-1 68 -3 125 -5 127 -1 1 -76
20 -167 42 -191 46 -312 67 -335 58 -9 -3 -33 3 -54 14 -22 11 -86 25 -152 34
-218 28 -205 28 -222 3 l-15 -22 -24 22 c-14 14 -53 29 -97 39 -81 18 -143 11
-215 -26 l-37 -18 -49 30 c-53 33 -115 43 -304 50 -83 2 -100 0 -110 -14 -12
-16 -16 -16 -57 5 -53 26 -156 33 -214 14z m190 -106 c49 -28 75 -76 75 -137
l0 -54 -44 0 c-24 0 -51 -3 -60 -6 -13 -5 -16 2 -16 37 0 67 -45 98 -101 69
-16 -9 -19 -22 -19 -80 l0 -69 43 -29 c23 -15 68 -44 100 -62 83 -49 97 -77
97 -186 0 -74 -4 -96 -23 -128 -30 -53 -83 -79 -156 -78 -114 1 -181 60 -181
159 0 58 0 58 83 66 l37 3 0 -46 c0 -54 13 -70 55 -70 52 0 64 17 67 95 l2 70
-98 65 c-133 89 -136 93 -136 210 0 103 9 131 51 163 54 40 163 44 224 8z
m-695 12 c0 -19 71 -427 74 -431 3 -2 7 18 11 45 15 111 56 369 60 381 3 7 25
12 60 12 56 0 57 0 51 -27 -4 -16 -24 -136 -46 -268 -22 -132 -45 -255 -50
-275 -5 -19 -12 -65 -16 -102 -7 -73 -12 -78 -86 -78 -41 0 -35 -16 -73 195
-32 177 -28 178 -65 -17 l-34 -178 -38 -2 c-21 -1 -46 -2 -55 -2 -14 -1 -19
11 -25 54 -8 56 -39 254 -79 500 -31 190 -33 174 26 178 l51 3 34 -206 c21
-128 37 -201 42 -192 4 8 22 103 40 210 l32 196 36 4 c19 2 38 4 43 5 4 1 7
-1 7 -5z m1068 -13 c114 -20 135 -60 130 -250 -3 -121 -5 -141 -23 -160 -33
-36 -76 -53 -150 -59 l-70 -6 4 -127 3 -128 -61 0 -61 0 0 368 c0 203 2 371 4
373 7 7 166 -1 224 -11z m462 -44 c78 -38 79 -43 82 -362 2 -252 1 -283 -15
-307 -29 -44 -65 -62 -126 -62 -107 0 -202 60 -216 138 -4 19 -5 144 -3 278 3
210 5 248 21 276 39 72 154 90 257 39z m-1975 10 c19 -8 44 -30 55 -48 19 -31
20 -50 20 -301 0 -293 -1 -301 -59 -350 -43 -36 -94 -50 -162 -45 -45 3 -65
10 -85 29 -52 48 -54 60 -54 311 1 128 5 253 10 278 19 103 168 170 275 126z
m2384 -55 c41 -12 62 -26 85 -54 30 -38 31 -42 35 -163 4 -149 0 -169 -39
-189 -22 -12 -30 -23 -30 -43 0 -23 29 -135 79 -300 l10 -33 -37 7 c-87 16
-80 8 -128 159 -24 77 -43 148 -44 158 0 9 -6 17 -14 17 -8 0 -21 3 -30 6 -14
5 -16 -11 -16 -146 l0 -153 -52 7 c-29 4 -54 8 -55 9 -4 5 -8 302 -5 522 l2
241 93 -14 c50 -8 116 -22 146 -31z m-2741 -343 l-3 -373 -48 -9 c-26 -4 -50
-6 -53 -3 -3 3 -36 89 -73 191 -37 102 -70 189 -74 192 -4 4 -8 -44 -8 -107
-3 -266 -4 -298 -14 -307 -5 -5 -31 -13 -57 -16 l-48 -7 0 375 c0 206 3 377 8
379 4 3 28 7 53 11 l47 7 73 -188 74 -187 5 199 5 200 40 6 c84 13 76 54 73
-363z m3052 289 c58 -14 126 -28 151 -32 61 -9 65 -13 74 -64 l7 -44 -66 8
-66 7 0 -333 0 -332 -51 6 c-29 4 -54 9 -57 12 -3 2 -5 155 -4 339 l2 334 -28
6 c-109 27 -102 22 -102 77 0 43 2 50 18 45 9 -2 64 -16 122 -29z m-3544 -51
c30 -30 34 -40 34 -88 l0 -55 -55 -15 -55 -15 0 41 c0 67 -41 87 -94 45 -23
-18 -26 -27 -26 -84 0 -60 2 -65 33 -89 17 -13 55 -35 82 -48 115 -54 125 -71
125 -202 0 -116 -22 -166 -94 -210 -55 -34 -144 -46 -186 -24 -37 20 -70 75
-70 119 0 34 3 39 28 45 15 4 39 13 55 21 27 13 27 13 27 -20 0 -59 47 -76 94
-34 22 19 26 31 27 93 1 39 -1 75 -4 81 -3 5 -42 30 -85 55 -43 26 -93 62
-110 82 -30 34 -32 42 -32 112 0 85 14 127 58 167 38 37 93 56 161 57 47 0 57
-4 87 -34z"/>
<path d="M3254 3080 l1 -140 51 0 c27 0 55 5 62 12 8 8 12 49 12 120 0 129
-11 148 -83 148 l-43 0 0 -140z"/>
<path d="M3695 3188 c-11 -6 -23 -16 -27 -22 -9 -13 -8 -225 1 -376 l6 -105
38 -18 c35 -18 39 -18 62 -3 l25 16 0 239 c0 214 -2 239 -17 253 -25 22 -65
29 -88 16z"/>
<path d="M1716 3169 l-26 -20 0 -245 0 -244 25 -6 c31 -8 69 1 89 22 14 13 16
50 16 249 0 230 0 234 -22 249 -30 21 -50 20 -82 -5z"/>
<path d="M4112 3016 l3 -131 48 -3 c71 -5 77 4 77 118 0 112 -7 124 -84 139
l-47 9 3 -132z"/>
<path d="M1975 2330 c-134 -28 -214 -110 -215 -221 0 -91 48 -175 120 -211 44
-23 51 -23 430 -23 212 0 572 2 800 5 368 5 419 8 455 23 60 27 103 74 120
131 21 70 19 105 -11 164 -35 70 -103 120 -181 132 -71 12 -1461 11 -1518 0z
m102 -105 l37 -16 -20 -20 c-17 -16 -25 -18 -48 -9 -19 7 -33 7 -47 -1 -26
-13 -17 -25 29 -39 64 -21 82 -37 82 -75 0 -65 -79 -95 -156 -59 -39 19 -41
25 -15 48 12 11 21 14 26 7 3 -6 24 -11 46 -11 54 0 53 26 -2 40 -39 11 -89
49 -89 68 0 16 42 63 64 72 31 13 53 12 93 -5z m282 -6 l34 -20 -21 -21 c-17
-18 -24 -19 -36 -9 -23 19 -67 9 -88 -20 -40 -53 24 -120 82 -87 27 15 30 15
46 -3 22 -24 7 -44 -46 -60 -33 -10 -44 -9 -83 10 -35 17 -49 31 -61 62 -20
49 -20 53 0 94 16 35 80 75 119 75 11 0 35 -9 54 -21z m152 11 c5 0 9 -20 9
-45 l0 -45 45 0 45 0 0 45 c0 43 1 45 30 45 l30 0 0 -120 0 -120 -30 0 c-29 0
-30 1 -30 50 l0 50 -45 0 -45 0 0 -50 c0 -49 -1 -50 -30 -50 l-30 0 0 118 c0
65 3 122 7 126 4 3 13 4 21 1 7 -3 18 -5 23 -5z m440 -28 c46 -47 56 -81 37
-130 -26 -69 -104 -100 -168 -67 -90 47 -95 175 -8 218 56 28 95 22 139 -21z
m304 14 c32 -21 58 -82 51 -118 -22 -109 -154 -142 -221 -54 -82 108 55 248
170 172z m187 -73 l3 -88 53 -3 c50 -3 52 -4 52 -33 l0 -30 -82 3 -83 3 -3
118 -3 117 30 0 30 0 3 -87z"/>
<path d="M2820 2164 c-21 -25 -16 -75 9 -96 29 -23 53 -23 79 0 31 27 35 55
11 85 -24 31 -78 37 -99 11z"/>
<path d="M3142 2164 c-36 -25 -27 -89 14 -105 48 -17 103 27 89 71 -15 49 -61
64 -103 34z"/>
<path d="M4058 2093 c6 -2 18 -2 25 0 6 3 1 5 -13 5 -14 0 -19 -2 -12 -5z"/>
<path d="M827 2033 c-4 -3 -7 -17 -7 -30 0 -19 5 -23 29 -23 32 0 48 24 30 46
-12 15 -41 19 -52 7z"/>
<path d="M4570 2019 c-9 -15 -8 -24 1 -35 18 -22 53 -13 57 15 6 40 -39 56
-58 20z"/>
<path d="M1010 2005 c-7 -9 -10 -18 -6 -22 3 -4 12 1 19 10 7 9 31 18 57 20
l45 4 -51 1 c-36 1 -55 -3 -64 -13z"/>
<path d="M4058 1963 c7 -3 16 -2 19 1 4 3 -2 6 -13 5 -11 0 -14 -3 -6 -6z"/>
<path d="M1154 1875 c-7 -18 3 -35 22 -35 13 0 15 4 14 28 -1 4 14 10 32 13
29 6 28 7 -15 8 -33 1 -49 -3 -53 -14z"/>
<path d="M1338 1883 c23 -2 61 -2 85 0 23 2 4 4 -43 4 -47 0 -66 -2 -42 -4z"/>
<path d="M3869 1873 c-13 -16 -12 -17 4 -4 16 13 21 21 13 21 -2 0 -10 -8 -17
-17z"/>
<path d="M4103 1883 c20 -2 54 -2 75 0 20 2 3 4 -38 4 -41 0 -58 -2 -37 -4z"/>
<path d="M1535 1650 c-88 -5 -90 -6 -90 -30 l0 -25 143 -3 c141 -2 142 -2 164
23 12 14 30 25 40 25 21 0 22 -4 7 -33 -11 -21 -11 -21 7 -4 15 13 16 21 8 35
-12 19 -102 23 -279 12z"/>
<path d="M2045 1648 c-69 -25 -108 -86 -109 -168 0 -96 56 -171 142 -191 24
-5 98 -1 216 12 l178 20 87 92 c47 50 108 114 136 141 l50 51 -145 7 c-80 4
-201 15 -270 24 -166 22 -249 26 -285 12z"/>
<path d="M3225 1650 c-22 -4 -90 -14 -152 -21 l-112 -12 -141 -142 -141 -143
163 -7 c90 -3 235 -15 324 -25 157 -18 204 -17 249 8 53 28 95 103 95 170 0
52 -42 133 -81 156 -36 21 -141 30 -204 16z"/>
<path d="M3653 1653 c-17 -6 -16 -38 1 -52 9 -8 68 -11 187 -9 l174 3 0 30 0
30 -175 2 c-96 1 -181 -1 -187 -4z"/>
<path d="M2810 1603 c-1 -5 -57 -66 -125 -138 l-124 -130 32 -3 c20 -2 33 1
36 10 2 7 60 70 129 141 l126 127 -37 0 c-20 0 -37 -3 -37 -7z"/>
</g>
</svg>
